# xmcd
#
# Track frame offsets: 
#        150
#        16954
#        33938
#        47302
#        60737
#        74897
#        85278
#        98995
#        115050
#        129813
#        151429
#        168308
#        181209
#        198318
#
# Disc length: 2937 seconds
#
# Revision: 0
# Processed by: cddbd v1.5.2PL0 Copyright (c) Steve Scherf et al.
# Submitted via: ExactAudioCopyFreeDBPlugin 1.0
#
DISCID=b20b770e
DTITLE=Jim Liban and Joel Paterson Trio - I Say What I Mean
DYEAR=2014
DGENRE=Blues
TTITLE0=I Say What I Mean
TTITLE1=No More Alcohol
TTITLE2=Must've Been Dreaming
TTITLE3=Stop On By
TTITLE4=Tell Me Everything
TTITLE5=Cottonweed
TTITLE6=Sad, Tired and Worried
TTITLE7=I Am Satisfied
TTITLE8=Cold Stuff
TTITLE9=Real Good Deal
TTITLE10=Quick Draw
TTITLE11=Thank You for the Dance
TTITLE12=Right Hand Blues
TTITLE13=Selfish Man
EXTD=
EXTT0=
EXTT1=
EXTT2=
EXTT3=
EXTT4=
EXTT5=
EXTT6=
EXTT7=
EXTT8=
EXTT9=
EXTT10=
EXTT11=
EXTT12=
EXTT13=
PLAYORDER=
